<?xml version="1.0" encoding="UTF-8"?>
<svg xmlns="http://www.w3.org/2000/svg" width="459" height="172" viewBox="0 0 459 172">
  <path fill="#030303" fill-rule="evenodd" d="
    M0 0
    C151.47 0 302.94 0 459 0
    C459 56.76 459 113.52 459 172
    C307.53 172 156.06 172 0 172
    C0 115.24 0 58.48 0 0
    Z

    M171 98
    C257.13 98 343.26 98 432 98
    C432 122.42 432 146.84 432 172
    C321.12 172 210.24 172 96 172
    C96 171.67 96 171.34 96 171
    C96.98097656 170.78085938 97.96195312 170.56171875 98.97265625 170.3359375
    C123.48656744 164.66380313 143.91254387 153.66897349 158 132
    C164.14650285 121.38893472 168.59389749 110.03051257 171 98
    Z

    M95 0
    C206.21 0 317.42 0 432 0
    C432 24.42 432 48.84 432 74
    C345.87 74 259.74 74 171 74
    C169.68 68.72 168.36 63.44 167 58
    C165.86746645 54.94611585 164.79968717 52.19453193 163.375 49.3125
    C163.03799072 48.61463379 162.70098145 47.91676758 162.35375977 47.19775391
    C151.75208396 26.12905727 133.1886545 12.03730162 111.25 4.125
    C105.958268 2.5323428 100.45928915 1.78517695 95 1
    C95 0.67 95 0.34 95 0
    Z

    M0 95
    C0.33 95 0.66 95 1 95
    C1.12375 95.94617188 1.2475 96.89234375 1.375 97.8671875
    C4.69353383 120.19083022 16.0294382 140.10672012 33.9375 153.9375
    C47.09105162 163.26291453 61.1099902 168.7146348 77 171
    C77 171.33 77 171.66 77 172
    C51.59 172 26.18 172 0 172
    C0 146.59 0 121.18 0 95
    Z

    M0 0
    C25.74 0 51.48 0 78 0
    C78 0.33 78 0.66 78 1
    C76.36804688 1.23783203 76.36804688 1.23783203 74.703125 1.48046875
    C65.52567338 2.90246028 57.38345808 4.83195304 49 9
    C48.06671875 9.45375 47.1334375 9.9075 46.171875 10.375
    C39.44724385 13.831235 33.67882515 18.02390572 28 23
    C26.96746094 23.88945313 26.96746094 23.88945313 25.9140625 24.796875
    C10.59770361 38.9629935 3.26257874 58.79650276 1 79
    C0.67 79 0.34 79 0 79
    C0 52.93 0 26.86 0 0
    Z
  "/>
</svg>
