<svg width="167" height="266" viewBox="0 0 167 266" fill="none" xmlns="http://www.w3.org/2000/svg">
<path d="M83.8422 0.00708008C129.707 0.00708008 166.763 37.0952 166.763 83.0014C166.763 128.908 125.302 190.895 83.8422 265.589C42.382 190.895 0.922006 128.908 0.921936 83.0014C0.921936 37.0952 37.977 0.00713204 83.8422 0.00708008Z" fill="#0E70C6"/>
<path d="M148.987 83.0014C148.987 46.8978 119.875 17.7833 83.8422 17.7833C47.8094 17.7833 18.6981 46.8978 18.6981 83.0014C18.6982 101.37 27.2172 125.038 42.6795 155.442C54.2544 178.202 68.4673 202.486 83.8419 229.411C99.2166 202.486 113.43 178.202 125.005 155.442C140.467 125.038 148.986 101.37 148.987 83.0014ZM166.763 83.0014C166.763 128.908 125.302 190.895 83.8422 265.589C42.382 190.895 0.922006 128.908 0.921936 83.0014C0.921936 37.0952 37.977 0.00713204 83.8422 0.00708008C129.707 0.00708008 166.763 37.0952 166.763 83.0014Z" fill="#0E70C6"/>
<path d="M66.1007 119.108H49.0146L75.0487 43.6936H95.5961L121.593 119.108H104.507L85.617 60.9269H85.0278L66.1007 119.108ZM65.0328 89.465H105.391V101.911H65.0328V89.465Z" fill="white"/>
</svg>
