<svg width="167" height="267" viewBox="0 0 167 267" fill="none" xmlns="http://www.w3.org/2000/svg">
<path d="M83.2231 0.836426C129.088 0.836426 166.144 37.9245 166.144 83.8307C166.144 129.737 124.683 191.724 83.2231 266.418C41.763 191.724 0.302926 129.737 0.302856 83.8307C0.302856 37.9245 37.3579 0.836478 83.2231 0.836426Z" fill="white"/>
<path d="M148.367 83.8307C148.367 47.7271 119.256 18.6126 83.2231 18.6126C47.1903 18.6127 18.079 47.7271 18.079 83.8307C18.0791 102.199 26.5982 125.867 42.0604 156.271C53.6354 179.031 67.8482 203.315 83.2228 230.241C98.5975 203.315 112.811 179.031 124.386 156.271C139.848 125.867 148.367 102.199 148.367 83.8307ZM166.144 83.8307C166.144 129.737 124.683 191.724 83.2231 266.418C41.763 191.724 0.302926 129.737 0.302856 83.8307C0.302856 37.9245 37.3579 0.836478 83.2231 0.836426C129.088 0.836426 166.144 37.9245 166.144 83.8307Z" fill="#0E70C6"/>
<path d="M64.1995 120.098H47.1135L73.1475 44.6843H93.6949L119.692 120.098H102.606L83.7158 61.9176H83.1267L64.1995 120.098ZM63.1316 90.4557H103.49V102.902H63.1316V90.4557Z" fill="#0E70C6"/>
</svg>
