<svg width="167" height="267" viewBox="0 0 167 267" fill="none" xmlns="http://www.w3.org/2000/svg">
<path d="M83.619 0.481445C129.484 0.481445 166.539 37.5695 166.539 83.4757C166.539 129.382 125.079 191.369 83.619 266.063C42.1588 191.369 0.6988 129.382 0.69873 83.4757C0.69873 37.5696 37.7538 0.481497 83.619 0.481445Z" fill="#EC3232"/>
<path d="M148.763 83.4757C148.763 47.3722 119.652 18.2576 83.619 18.2576C47.5862 18.2577 18.4749 47.3721 18.4749 83.4757C18.475 101.845 26.994 125.512 42.4563 155.916C54.0312 178.676 68.2441 202.96 83.6187 229.886C98.9934 202.96 113.207 178.676 124.782 155.916C140.244 125.512 148.763 101.844 148.763 83.4757ZM166.539 83.4757C166.539 129.382 125.079 191.369 83.619 266.063C42.1588 191.369 0.6988 129.382 0.69873 83.4757C0.69873 37.5696 37.7538 0.481497 83.619 0.481445C129.484 0.481445 166.539 37.5695 166.539 83.4757Z" fill="#EC3232"/>
<path d="M59.3602 119.582V44.033H89.3223C95.0823 44.033 99.9895 45.1273 104.044 47.3161C108.098 49.4802 111.188 52.4928 113.314 56.3539C115.465 60.1904 116.54 64.6171 116.54 69.634C116.54 74.6509 115.453 79.0776 113.277 82.914C111.102 86.7505 107.95 89.7385 103.821 91.8781C99.7175 94.0176 94.7486 95.0874 88.9144 95.0874H69.8173V82.2869H86.3187C89.4088 82.2869 91.9551 81.7582 93.9575 80.7007C95.9846 79.6186 97.4926 78.1307 98.4815 76.2371C99.495 74.3189 100.002 72.1178 100.002 69.634C100.002 67.1255 99.495 64.9368 98.4815 63.0677C97.4926 61.1741 95.9846 59.7108 93.9575 58.6779C91.9304 57.6204 89.3594 57.0917 86.2445 57.0917H75.4166V119.582H59.3602Z" fill="white"/>
</svg>
