<svg width="166" height="267" viewBox="0 0 166 267" fill="none" xmlns="http://www.w3.org/2000/svg">
<path d="M82.9202 0.736084C128.785 0.736084 165.841 37.8242 165.841 83.7304C165.841 129.637 124.38 191.624 82.9202 266.318C41.4601 191.624 6.98905e-05 129.637 0 83.7304C0 37.8242 37.055 0.736136 82.9202 0.736084Z" fill="white"/>
<path d="M148.065 83.7304C148.065 47.6268 118.953 18.5123 82.9202 18.5123C46.8875 18.5123 17.7762 47.6268 17.7762 83.7304C17.7762 102.099 26.2953 125.767 41.7575 156.171C53.3325 178.931 67.5453 203.215 82.9199 230.14C98.2946 203.215 112.508 178.931 124.083 156.171C139.546 125.767 148.065 102.099 148.065 83.7304ZM165.841 83.7304C165.841 129.637 124.38 191.624 82.9202 266.318C41.4601 191.624 6.98905e-05 129.637 0 83.7304C0 37.8242 37.055 0.736136 82.9202 0.736084C128.785 0.736084 165.841 37.8242 165.841 83.7304Z" fill="#EC3232"/>
<path d="M58.6614 119.836V44.2876H88.6234C94.3835 44.2876 99.2906 45.382 103.345 47.5707C107.399 49.7349 110.489 52.7475 112.615 56.6085C114.766 60.445 115.841 64.8717 115.841 69.8886C115.841 74.9055 114.754 79.3322 112.578 83.1687C110.403 87.0051 107.251 89.9931 103.122 92.1327C99.0187 94.2723 94.0497 95.342 88.2155 95.342H69.1184V82.5415H85.6198C88.71 82.5415 91.2562 82.0128 93.2586 80.9553C95.2858 79.8732 96.7938 78.3854 97.7826 76.4917C98.7962 74.5735 99.303 72.3725 99.303 69.8886C99.303 67.3801 98.7962 65.1914 97.7826 63.3223C96.7938 61.4287 95.2858 59.9654 93.2586 58.9326C91.2315 57.8751 88.6605 57.3463 85.5456 57.3463H74.7178V119.836H58.6614Z" fill="#EC3232"/>
</svg>
