<!DOCTYPE svg PUBLIC "-//W3C//DTD SVG 1.1//EN" "http://www.w3.org/Graphics/SVG/1.1/DTD/svg11.dtd">
<!-- Uploaded to: SVG Repo, www.svgrepo.com, Transformed by: SVG Repo Mixer Tools -->
<svg fill="#000000" version="1.1" id="Capa_1" xmlns="http://www.w3.org/2000/svg" xmlns:xlink="http://www.w3.org/1999/xlink" width="201px" height="201px" viewBox="-113.62 -113.62 700.67 700.67" xml:space="preserve" stroke="#000000" stroke-width="8.995094">
<g id="SVGRepo_bgCarrier" stroke-width="0">
<rect x="-113.62" y="-113.62" width="700.67" height="700.67" rx="350.335" fill="#ff2722" strokewidth="0"/>
</g>
<g id="SVGRepo_tracerCarrier" stroke-linecap="round" stroke-linejoin="round"/>
<g id="SVGRepo_iconCarrier"> <g> <g> <path d="M460.926,302.072H314.573c-6.904,0-12.5,5.597-12.5,12.5v146.354c0,6.903,5.596,12.5,12.5,12.5 c6.903,0,12.5-5.597,12.5-12.5V327.072h133.853c6.903,0,12.5-5.596,12.5-12.5C473.426,307.669,467.829,302.072,460.926,302.072z"/> <path d="M158.853,302.072H12.5c-6.903,0-12.5,5.597-12.5,12.5c0,6.904,5.597,12.5,12.5,12.5h133.853v133.854 c0,6.903,5.596,12.5,12.5,12.5c6.904,0,12.5-5.597,12.5-12.5V314.572C171.353,307.669,165.757,302.072,158.853,302.072z"/> <path d="M158.853,0c-6.904,0-12.5,5.597-12.5,12.5v133.853H12.5c-6.903,0-12.5,5.596-12.5,12.5c0,6.904,5.597,12.5,12.5,12.5 h146.353c6.904,0,12.5-5.596,12.5-12.5V12.5C171.353,5.597,165.757,0,158.853,0z"/> <path d="M314.573,171.353h146.353c6.903,0,12.5-5.596,12.5-12.5c0-6.904-5.597-12.5-12.5-12.5H327.073V12.5 c0-6.903-5.597-12.5-12.5-12.5c-6.904,0-12.5,5.597-12.5,12.5v146.353C302.073,165.757,307.669,171.353,314.573,171.353z"/> <path d="M236.713,365.38c-6.903,0-12.5,5.597-12.5,12.5v83.046c0,6.903,5.597,12.5,12.5,12.5c6.902,0,12.5-5.597,12.5-12.5V377.88 C249.213,370.977,243.615,365.38,236.713,365.38z"/> <path d="M236.713,108.046c6.902,0,12.5-5.597,12.5-12.5V12.5c0-6.903-5.598-12.5-12.5-12.5c-6.903,0-12.5,5.597-12.5,12.5v83.046 C224.213,102.449,229.81,108.046,236.713,108.046z"/> <path d="M12.5,249.213h83.046c6.903,0,12.5-5.598,12.5-12.5c0-6.903-5.597-12.5-12.5-12.5H12.5c-6.903,0-12.5,5.597-12.5,12.5 C0,243.615,5.597,249.213,12.5,249.213z"/> <path d="M460.926,224.213H377.88c-6.903,0-12.5,5.597-12.5,12.5c0,6.902,5.597,12.5,12.5,12.5h83.046 c6.903,0,12.5-5.598,12.5-12.5C473.426,229.81,467.829,224.213,460.926,224.213z"/> <path d="M278.234,224.213h-29.021V195.19c0-6.903-5.598-12.5-12.5-12.5c-6.903,0-12.5,5.597-12.5,12.5v29.023H195.19 c-6.903,0-12.5,5.597-12.5,12.5c0,6.902,5.597,12.5,12.5,12.5h29.023v29.023c0,6.902,5.597,12.5,12.5,12.5 c6.902,0,12.5-5.598,12.5-12.5v-29.023h29.021c6.903,0,12.501-5.598,12.501-12.5C290.735,229.81,285.139,224.213,278.234,224.213z "/> </g> </g> </g>
</svg>